<svg width="16" height="21" viewBox="0 0 16 21" fill="none" xmlns="http://www.w3.org/2000/svg">
<g clip-path="url(#clip0_10_26999)">
<path d="M11.9894 6.84323C11.2588 6.84323 10.6666 6.20675 10.6666 5.42161C10.6666 4.63648 11.2588 4 11.9894 4C12.7199 4 13.3121 4.63648 13.3121 5.42161C13.3121 6.20675 12.7199 6.84323 11.9894 6.84323Z" fill="#2B68FF"/>
<path d="M13.1481 14.9021H4.44435V16.0867H13.1481V14.9021ZM13.1481 11.9498H4.44435V13.1345H13.1481V11.9498ZM13.1481 9H4.44435V10.1847H13.1481V9Z" fill="#2B68FF"/>
<path d="M15.5454 0.220703C15.9546 0.220703 16.2894 0.540566 16.2894 0.93151V20.5451C16.2894 20.936 15.9546 21.2559 15.5454 21.2559H0.870255C0.461028 21.2559 0.126206 20.936 0.126206 20.5451V4.97718C0.126206 4.70404 0.237934 4.44278 0.435436 4.2541L4.36759 0.497629C4.55364 0.319887 4.80105 0.220703 5.05836 0.220703H15.5454ZM6.88266 1.64232C6.33038 1.64232 5.88266 2.09003 5.88266 2.64232V4.83621C5.88266 5.30771 5.4784 5.69392 4.98485 5.69392H2.6143C2.06202 5.69392 1.6143 6.14163 1.6143 6.69392V18.8342C1.6143 19.3865 2.06202 19.8342 2.6143 19.8342H13.8013C14.3536 19.8342 14.8013 19.3865 14.8013 18.8342V2.64232C14.8013 2.09003 14.3536 1.64232 13.8013 1.64232H6.88266Z" fill="#2B68FF"/>
</g>
<defs>
<clipPath id="clip0_10_26999">
<rect width="16" height="21" fill="white"/>
</clipPath>
</defs>
</svg>
