<svg width="18" height="22" viewBox="0 0 18 22" fill="none" xmlns="http://www.w3.org/2000/svg">
<path d="M14.1676 0.220703H7.17855H6.63698L6.25428 0.60336L0.963468 5.8945L0.580811 6.27716V6.81848V17.7269C0.580811 19.6726 2.1637 21.2558 4.10977 21.2558H14.1676C16.1131 21.2558 17.696 19.6726 17.696 17.7269V3.74966C17.696 1.80359 16.1131 0.220703 14.1676 0.220703ZM16.3896 17.7268C16.3896 18.9543 15.3948 19.9491 14.1676 19.9491H4.10977C2.88201 19.9491 1.8872 18.9543 1.8872 17.7268V6.81844H5.3266C6.34898 6.81844 7.17855 5.98944 7.17855 4.96678V1.52734H14.1676C15.3948 1.52734 16.3896 2.52215 16.3896 3.74966V17.7268Z" fill="#FC3629"/>
<path d="M5.6852 10.606H4.51311C4.28994 10.606 4.15625 10.7511 4.15625 10.9685V13.9986C4.15625 14.2611 4.32897 14.4341 4.56878 14.4341C4.80341 14.4341 4.97608 14.2611 4.97608 13.9986V13.0781C4.97608 13.0557 4.98755 13.0445 5.00994 13.0445H5.6852C6.51078 13.0445 7.00761 12.5423 7.00761 11.828C7.00765 11.1025 6.51653 10.606 5.6852 10.606ZM5.63474 12.3357H5.00994C4.98755 12.3357 4.97608 12.3245 4.97608 12.3024V11.3481C4.97608 11.3257 4.98755 11.3145 5.00994 11.3145H5.63474C5.98067 11.3145 6.1872 11.5211 6.1872 11.828C6.18724 12.1349 5.98067 12.3357 5.63474 12.3357Z" fill="#FC3629"/>
<path d="M8.89969 10.606H8.00127C7.7781 10.606 7.64441 10.7511 7.64441 10.9685V14.0434C7.64441 14.2611 7.77806 14.4005 8.00127 14.4005H8.89969C9.70864 14.4005 10.2112 14.1438 10.412 13.5244C10.4843 13.3067 10.5239 13.0445 10.5239 12.5032C10.5239 11.9619 10.4843 11.6997 10.412 11.482C10.2112 10.8627 9.70864 10.606 8.89969 10.606ZM9.62544 13.2399C9.53021 13.5411 9.25712 13.6696 8.8773 13.6696H8.4981C8.47571 13.6696 8.46424 13.6584 8.46424 13.6361V11.3705C8.46424 11.3481 8.47571 11.3369 8.4981 11.3369H8.8773C9.25712 11.3369 9.53021 11.4654 9.62544 11.7666C9.66447 11.8951 9.692 12.1183 9.692 12.5033C9.692 12.8882 9.66443 13.1114 9.62544 13.2399Z" fill="#FC3629"/>
<path d="M13.4591 10.606H11.6181C11.3949 10.606 11.2606 10.7511 11.2606 10.9685V13.9986C11.2606 14.2611 11.4339 14.4341 11.6737 14.4341C11.9078 14.4341 12.081 14.2611 12.081 13.9986V12.916C12.081 12.8939 12.0919 12.8828 12.1143 12.8828H13.186C13.4258 12.8828 13.5652 12.7376 13.5652 12.5311C13.5652 12.3245 13.4258 12.1797 13.186 12.1797H12.1143C12.0919 12.1797 12.081 12.1685 12.081 12.1461V11.3481C12.081 11.3257 12.0919 11.3145 12.1143 11.3145H13.4591C13.688 11.3145 13.8389 11.1639 13.8389 10.9631C13.8389 10.7565 13.688 10.606 13.4591 10.606Z" fill="#FC3629"/>
</svg>
