<svg width="23" height="16" viewBox="0 0 23 16" fill="none" xmlns="http://www.w3.org/2000/svg">
<path fill-rule="evenodd" clip-rule="evenodd" d="M17.4293 14.946C19.8022 15.0324 21.7973 13.1823 21.89 10.8097V4.66654C21.7973 2.29399 19.8022 0.443868 17.4293 0.53025H5.75667C3.38387 0.443868 1.38867 2.29399 1.29602 4.66654V10.8097C1.38867 13.1823 3.38387 15.0324 5.75667 14.946H17.4293Z" stroke="#FE5151" stroke-linecap="round" stroke-linejoin="round"/>
<path fill-rule="evenodd" clip-rule="evenodd" d="M11.0864 4.8288L14.3412 7.04054C14.5521 7.1637 14.6817 7.38951 14.6817 7.63365C14.6817 7.87789 14.5521 8.10371 14.3412 8.22676L11.0864 10.6465C10.4685 11.0656 9.53357 10.7083 9.53357 10.0534V5.41984C9.53357 4.76804 10.4696 4.40971 11.0864 4.8288Z" stroke="#FE5151" stroke-linecap="round" stroke-linejoin="round"/>
</svg>
