<svg width="381" height="381" viewBox="0 0 381 381" fill="none" xmlns="http://www.w3.org/2000/svg">
<path d="M301.625 0H79.375C35.56 0 0 35.56 0 79.375V301.625C0 345.44 35.56 381 79.375 381H301.625C345.44 381 381 345.44 381 301.625V79.375C381 35.56 345.44 0 301.625 0ZM79.375 31.75H301.625C327.819 31.75 349.25 53.1813 349.25 79.375V142.875H31.75V79.375C31.75 53.1813 53.1813 31.75 79.375 31.75ZM301.625 349.25H79.375C53.1813 349.25 31.75 327.819 31.75 301.625V174.625H349.25V301.625C349.25 327.819 327.819 349.25 301.625 349.25ZM301.625 285.75C301.625 294.481 294.481 301.625 285.75 301.625H95.25C86.5188 301.625 79.375 294.481 79.375 285.75C79.375 277.019 86.5188 269.875 95.25 269.875H285.75C294.481 269.875 301.625 277.019 301.625 285.75ZM301.625 222.25C301.625 230.981 294.481 238.125 285.75 238.125H95.25C86.5188 238.125 79.375 230.981 79.375 222.25C79.375 213.519 86.5188 206.375 95.25 206.375H285.75C294.481 206.375 301.625 213.519 301.625 222.25ZM214.789 84.2962C207.169 76.6762 212.566 63.5 223.361 63.5H300.673C311.626 63.5 317.024 76.6762 309.245 84.2962L270.51 119.698C265.748 124.46 257.969 124.46 253.206 119.698L214.471 84.2962H214.789Z" fill="#5D6271"/>
</svg>
