<svg width="1053" height="1115" viewBox="0 0 1053 1115" fill="none" xmlns="http://www.w3.org/2000/svg">
<g filter="url(#filter0_f_1_6526)">
<path d="M379.516 751.317C379.516 790.138 299.666 888.254 257.967 888.254C216.268 888.254 228.511 790.138 228.511 751.317C228.511 712.496 307.966 661.775 349.665 661.775C391.364 661.775 379.516 712.496 379.516 751.317Z" fill="#B6FAD2"/>
</g>
<g filter="url(#filter1_f_1_6526)">
<path d="M861.239 348.045C861.239 416.997 719.414 591.264 645.351 591.264C571.288 591.264 593.032 416.997 593.032 348.045C593.032 279.094 734.157 189.006 808.221 189.006C882.284 189.006 861.239 279.094 861.239 348.045Z" fill="#B6FAD2" fill-opacity="0.71"/>
</g>
<defs>
<filter id="filter0_f_1_6526" x="0.834961" y="435.775" width="606.237" height="678.479" filterUnits="userSpaceOnUse" color-interpolation-filters="sRGB">
<feFlood flood-opacity="0" result="BackgroundImageFix"/>
<feBlend mode="normal" in="SourceGraphic" in2="BackgroundImageFix" result="shape"/>
<feGaussianBlur stdDeviation="113" result="effect1_foregroundBlur_1_6526"/>
</filter>
<filter id="filter1_f_1_6526" x="401.056" y="0.00585938" width="651.947" height="780.259" filterUnits="userSpaceOnUse" color-interpolation-filters="sRGB">
<feFlood flood-opacity="0" result="BackgroundImageFix"/>
<feBlend mode="normal" in="SourceGraphic" in2="BackgroundImageFix" result="shape"/>
<feGaussianBlur stdDeviation="94.5" result="effect1_foregroundBlur_1_6526"/>
</filter>
</defs>
</svg>
