<svg width="38" height="39" viewBox="0 0 28 29" fill="none" xmlns="http://www.w3.org/2000/svg">
<path d="M6.45667 15.0627H17.7032" stroke="#5D6271" stroke-width="2" stroke-linecap="round"/>
<path d="M6.45667 9.43945H17.7032" stroke="#5D6271" stroke-width="2" stroke-linecap="round"/>
<path d="M6.45667 19.5613H13.2046" stroke="#5D6271" stroke-width="2" stroke-linecap="round"/>
<path d="M21.642 10.1377C21.4947 10.1377 21.382 10.0987 21.304 10.0207C21.226 9.93398 21.187 9.81698 21.187 9.66965V7.27765H18.834C18.6867 7.27765 18.574 7.23865 18.496 7.16065C18.418 7.08265 18.379 6.97432 18.379 6.83565C18.379 6.69698 18.418 6.58865 18.496 6.51065C18.574 6.43265 18.6867 6.39365 18.834 6.39365H21.187V4.07965C21.187 3.92365 21.226 3.80665 21.304 3.72865C21.382 3.65065 21.499 3.61165 21.655 3.61165C21.8024 3.61165 21.9107 3.65065 21.98 3.72865C22.058 3.80665 22.097 3.92365 22.097 4.07965V6.39365H24.45C24.5974 6.39365 24.71 6.43265 24.788 6.51065C24.866 6.58865 24.905 6.69698 24.905 6.83565C24.905 6.97432 24.866 7.08265 24.788 7.16065C24.71 7.23865 24.5974 7.27765 24.45 7.27765H22.097V9.66965C22.097 9.81698 22.058 9.93398 21.98 10.0207C21.9107 10.0987 21.798 10.1377 21.642 10.1377Z" fill="#5D6271"/>
<path d="M18.4836 1.56665H1.95801V27.4338H22.2019V8.13608" stroke="#5D6271" stroke-width="2" stroke-linecap="round" stroke-linejoin="round"/>
</svg>
