<svg width="26" height="25" viewBox="0 0 26 25" fill="none" xmlns="http://www.w3.org/2000/svg">
<path d="M5.0654 2.41699H2.53271V4.83367H5.0654V2.41699Z" fill="#5D6271"/>
<path d="M17.7287 0V1.20834H16.4624V2.41668H17.7287V7.25003H18.9951V8.45837H17.7287V9.66671H18.9951H20.2614V7.25003H24.0604V8.45837H25.3268V7.25003V0H17.7287ZM24.0604 6.04169H18.9951V1.20834H24.0604V6.04169Z" fill="#5D6271"/>
<path d="M22.7942 2.41699H20.2615V4.83367H22.7942V2.41699Z" fill="#5D6271"/>
<path d="M5.0654 19.333H2.53271V21.7497H5.0654V19.333Z" fill="#5D6271"/>
<path d="M18.9951 16.918H17.7288V18.1263H18.9951V16.918Z" fill="#5D6271"/>
<path d="M12.6633 22.958H11.397V24.1663H12.6633V22.958Z" fill="#5D6271"/>
<path d="M13.9297 18.124H12.6633V19.3324H13.9297V18.124Z" fill="#5D6271"/>
<path d="M13.9297 20.542H12.6633V21.7503H13.9297V20.542Z" fill="#5D6271"/>
<path d="M25.3266 14.5H24.0603V15.7083H25.3266V14.5Z" fill="#5D6271"/>
<path d="M1.26634 14.5H0V15.7083H1.26634V14.5Z" fill="#5D6271"/>
<path d="M1.26634 8.45801H0V9.66635H1.26634V8.45801Z" fill="#5D6271"/>
<path d="M13.9297 1.20898V2.41732H11.397V3.62566H15.196V2.41732V1.20898H13.9297Z" fill="#5D6271"/>
<path d="M24.0606 9.66699V10.8753H21.5279V12.0837H17.7289V10.8753H16.4625V12.0837H13.9299V13.292H17.7289V14.5003H15.1962H13.9299V13.292H12.6635V14.5003H11.3972V13.292H10.1308V14.5003H8.8645V15.7087H11.3972V16.917H12.6635V15.7087H15.1962V16.917H13.9299V18.1254H15.1962V20.542H16.4625V21.7504H17.7289V20.542H21.5279V18.1254H22.7942V16.917H21.5279V14.5003H18.9952V13.292H21.5279V14.5003H22.7942V13.292H24.0606V12.0837H25.3269V10.8753V9.66699H24.0606ZM20.2616 15.7087V19.3337H16.4625V15.7087H20.2616Z" fill="#5D6271"/>
<path d="M16.4624 7.25H15.196V8.45834H13.9297V9.66668V10.875H15.196V9.66668H16.4624V8.45834H17.7287V7.25H16.4624Z" fill="#5D6271"/>
<path d="M16.4624 22.958H13.9297V24.1663H16.4624V22.958Z" fill="#5D6271"/>
<path d="M11.397 1.20898H10.1306V2.41732H11.397V1.20898Z" fill="#5D6271"/>
<path d="M21.5276 9.66699H20.2612V10.8753H21.5276V9.66699Z" fill="#5D6271"/>
<path d="M22.7942 8.45801H21.5278V9.66635H22.7942V8.45801Z" fill="#5D6271"/>
<path d="M6.33153 14.5H5.06519V15.7083H6.33153V14.5Z" fill="#5D6271"/>
<path d="M7.59804 22.959V18.1257H8.86438V16.9173V15.709H7.59804V16.9173H3.79902V15.709H2.53268H1.26634V16.9173H0V24.1674H7.59804H10.1307V22.959H7.59804ZM6.3317 22.959H1.26634V18.1257H6.3317V22.959Z" fill="#5D6271"/>
<path d="M8.86424 7.25H7.5979V8.45834H8.86424V7.25Z" fill="#5D6271"/>
<path d="M8.86438 0H7.59804H0V7.25003H1.26634V8.45837H2.53268V7.25003H3.79902V8.45837H5.06536V7.25003H7.59804V4.83335H8.86438V3.62502H7.59804V1.20834H8.86438H10.1307V0H8.86438ZM6.3317 6.04169H1.26634V1.20834H6.3317V6.04169Z" fill="#5D6271"/>
<path d="M16.4624 3.625H15.196V4.83334H16.4624V3.625Z" fill="#5D6271"/>
<path d="M13.9297 0H12.6633V1.20834H13.9297V0Z" fill="#5D6271"/>
<path d="M15.1961 7.25066V6.04232H13.9297V4.83398H12.6634V6.04232H10.1307V4.83398H8.86438V6.04232V7.25066H10.1307V9.66734H6.3317V8.459H5.06536V9.66734H1.26634V10.8757H3.79902V12.084H0V13.2924H3.79902V14.5007H5.06536V13.2924H6.3317V14.5007H7.59804V13.2924H10.1307V12.084H8.86438V10.8757H10.1307H11.3971V12.084H12.6634H13.9297V10.8757H12.6634V9.66734H11.3971V7.25066H15.1961ZM7.59804 12.084H5.06536V10.8757H7.59804V12.084Z" fill="#5D6271"/>
<path d="M11.3969 19.3346V18.1263V16.918H10.1306V18.1263H8.86426V19.3346H10.1306V20.543H8.86426V21.7513H11.3969V20.543H12.6633V19.3346H11.3969Z" fill="#5D6271"/>
<path d="M22.7941 21.7503V20.542H21.5278V21.7503H17.7288V22.9587H20.2614V24.167H21.5278V22.9587H24.0605V24.167H25.3268V22.9587V21.7503H22.7941Z" fill="#5D6271"/>
<path d="M24.0605 16.918V18.1263H22.7942V19.3346H25.3269V18.1263V16.918H24.0605Z" fill="#5D6271"/>
</svg>
