<svg width="58" height="52" viewBox="0 0 58 52" fill="none" xmlns="http://www.w3.org/2000/svg">
<path d="M28.8001 18C33.2183 18 36.8001 14.4183 36.8001 10C36.8001 5.58172 33.2183 2 28.8001 2C24.3818 2 20.8 5.58172 20.8 10C20.8 14.4183 24.3818 18 28.8001 18Z" stroke="#4F4F4F" stroke-width="4" stroke-linecap="round" stroke-linejoin="round"/>
<path d="M18.1333 36.6665H7.46663C4.52112 36.6665 2.1333 39.0543 2.1333 41.9998V44.6665C2.1333 47.612 4.52112 49.9998 7.46663 49.9998H18.1333C21.0788 49.9998 23.4666 47.612 23.4666 44.6665V41.9998C23.4666 39.0543 21.0788 36.6665 18.1333 36.6665Z" stroke="#4F4F4F" stroke-width="4" stroke-linecap="round" stroke-linejoin="round"/>
<path d="M50.1333 36.6665H39.4666C36.5211 36.6665 34.1333 39.0543 34.1333 41.9998V44.6665C34.1333 47.612 36.5211 49.9998 39.4666 49.9998H50.1333C53.0788 49.9998 55.4666 47.612 55.4666 44.6665V41.9998C55.4666 39.0543 53.0788 36.6665 50.1333 36.6665Z" stroke="#4F4F4F" stroke-width="4" stroke-linecap="round" stroke-linejoin="round"/>
<path d="M12.8 36.6667V31.3333C12.8 29.9188 13.362 28.5623 14.3621 27.5621C15.3623 26.5619 16.7189 26 18.1334 26H39.4667C40.8812 26 42.2378 26.5619 43.238 27.5621C44.2382 28.5623 44.8001 29.9188 44.8001 31.3333V36.6667" stroke="#4F4F4F" stroke-width="4" stroke-linecap="round" stroke-linejoin="round"/>
<path d="M28.8 18V26" stroke="#4F4F4F" stroke-width="4" stroke-linecap="round" stroke-linejoin="round"/>
</svg>
