<svg width="30" height="18" viewBox="0 0 30 18" fill="none" xmlns="http://www.w3.org/2000/svg">
<path d="M28.5271 0.585772C27.7462 -0.195257 26.4798 -0.195257 25.6988 0.585772L17.685 8.59941L13.4425 4.35667C13.0676 3.98149 12.5588 3.77064 12.0284 3.77064C11.4978 3.77064 10.9892 3.98148 10.6143 4.35639L1.18611 13.7845C0.405084 14.5656 0.405084 15.8318 1.18611 16.6129C1.57668 17.0034 2.08855 17.1987 2.60033 17.1987C3.1122 17.1987 3.62408 17.0035 4.01445 16.6129L12.0283 8.59904L16.2707 12.8418C16.6458 13.2169 17.1544 13.4276 17.685 13.4276C18.2152 13.4276 18.7242 13.2168 19.0991 12.8418L28.5271 3.41402C29.3082 2.63308 29.3082 1.3668 28.5271 0.585772Z" fill="#4F4F4F"/>
</svg>
