<svg width="58" height="54" viewBox="0 0 58 54" fill="none" xmlns="http://www.w3.org/2000/svg">
<path d="M17.5167 29.5307L20.0751 31.0678C20.4916 31.0678 20.7098 30.8893 20.7098 30.5422C20.6792 30.2136 20.5777 29.8956 20.4123 29.6101L14.8591 19.188L2.57281 19.4855C2.45839 19.4758 2.34326 19.4918 2.23578 19.5322C2.12829 19.5726 2.03114 19.6364 1.95139 19.719C1.87163 19.8016 1.81127 19.9009 1.77468 20.0097C1.73808 20.1186 1.72619 20.2342 1.73984 20.3482C1.73984 20.4771 1.91833 20.6457 2.26541 20.8738L4.8139 22.4108L2.06708 26.6054C1.43714 27.4805 1.05049 28.507 0.946533 29.5803C0.983666 30.4247 1.23998 31.2449 1.69026 31.9602L10.0497 46.5372C9.85843 45.6775 9.75871 44.8 9.75224 43.9193C9.77513 42.3523 10.2617 40.8271 11.1504 39.5363L17.5266 29.5307H17.5167Z" fill="#4F4F4F"/>
<path d="M20.7396 21.0525L27.6315 10.3428C25.0532 4.47234 22.3163 1.53711 19.4207 1.53711C17.6755 1.53711 16.5053 2.02301 15.9004 2.99481L9.37549 13.4169L20.7396 21.0525Z" fill="#4F4F4F"/>
<path d="M15.1169 49.9583H28.4147V36.125H15.6028C14.5235 37.59 13.5302 39.1163 12.6279 40.6964C11.9935 41.8987 11.6537 43.2343 11.6362 44.5935C11.6362 48.17 12.7865 49.9583 15.0871 49.9583H15.1169Z" fill="#4F4F4F"/>
<path d="M42.5158 18.4741L48.4656 8.55779C48.658 8.22629 48.7606 7.8503 48.7631 7.467C48.7631 7.02076 48.6144 6.79269 48.3169 6.79269C48.1259 6.89448 47.9226 6.97114 47.712 7.02076L44.985 8.16114L42.5158 3.29222C41.4382 1.09741 39.2467 0 35.9413 0H20.5115C21.8724 0.335563 23.1644 0.906045 24.3293 1.68578C25.9093 2.93523 27.5223 5.2821 29.1684 8.72637L32.2425 15.172L29.9915 16.2628C29.8792 16.3158 29.7863 16.4026 29.7258 16.5111C29.6654 16.6196 29.6404 16.7443 29.6543 16.8677C29.6543 17.2346 29.8923 17.4527 30.3683 17.5023L42.5555 18.494L42.5158 18.4741Z" fill="#4F4F4F"/>
<path d="M48.4359 47.8958L57.0532 32.228C55.9558 33.5583 54.5206 34.5687 52.8982 35.1533C51.2265 35.6139 49.4946 35.8178 47.7616 35.7582H38.1626V33.775C38.1626 33.0015 37.9742 32.6148 37.5973 32.6148C37.4805 32.6056 37.3634 32.6284 37.2585 32.6808C37.1537 32.7332 37.0651 32.8133 37.0024 32.9123L30.9832 43.4335L37.28 53.1118C37.756 53.8357 38.1626 54.1035 38.5096 53.9646C38.8567 53.8258 39.0352 53.687 39.0352 53.4093V50.1072H44.3603C45.1881 50.1772 46.0185 50.0055 46.7507 49.613C47.4829 49.2205 48.0855 48.624 48.4855 47.8958H48.4359Z" fill="#4F4F4F"/>
<path d="M44.6874 33.7653H50.4191C52.0102 33.6789 53.5216 33.0408 54.693 31.9605C56.273 30.711 57.0597 29.3889 57.0531 27.994C57.0374 27.307 56.8164 26.6404 56.4185 26.0801L49.596 15.668L37.865 22.4904L44.6874 33.7653Z" fill="#4F4F4F"/>
</svg>
