<svg width="45" height="46" viewBox="0 0 45 46" fill="none" xmlns="http://www.w3.org/2000/svg">
<path d="M29.3498 0.451985C28.4697 -0.428153 26.9456 0.172917 26.9456 1.39652V8.88843C26.9456 12.0226 29.6074 14.6201 32.8489 14.6201C34.8883 14.6415 37.7219 14.6415 40.1476 14.6415C41.3712 14.6415 42.0152 13.2033 41.1566 12.3446C38.0653 9.2319 32.5269 3.62907 29.3498 0.451985Z" fill="#4F4F4F"/>
<path d="M27.1192 37.0556C22.0745 37.4205 22.0745 44.7192 27.1192 45.0842H39.0547C40.493 45.0842 41.9098 44.5475 42.9617 43.5815C46.5037 40.4903 44.6146 34.3079 39.9564 33.7283C38.2819 23.6603 23.7275 27.4814 27.1621 37.0771" fill="#4F4F4F"/>
<path d="M41.5867 19.728V26.7047C41.5867 27.3487 40.6422 27.6492 40.1699 27.1984C39.1395 26.1895 37.8729 25.4167 36.4132 24.9659C32.8068 23.8496 28.6208 24.9444 26.0233 27.6922C24.2845 29.4954 23.4043 31.7923 23.4258 34.2825C23.4258 34.6903 23.2326 35.0553 22.9106 35.2914C21.1932 36.6009 20.1199 38.6617 20.1199 41.0445C20.1199 41.2162 20.1199 41.388 20.1414 41.5597C20.1843 42.2466 19.6906 42.9121 18.9822 42.9121H12.7568C6.14503 42.9121 0.799805 38.6187 0.799805 30.9551V11.957C0.799805 4.29336 6.14503 0 12.7568 0H21.8587C23.0394 0 24.0054 0.966005 24.0054 2.14668V8.35058C24.0054 13.4597 28.127 17.5813 33.2361 17.5813H39.44C40.6207 17.5813 41.5867 18.5473 41.5867 19.728Z" fill="#4F4F4F"/>
</svg>
