<svg width="45" height="48" viewBox="0 0 45 48" fill="none" xmlns="http://www.w3.org/2000/svg">
<path d="M42.5999 3.99993H24.6001V1.99996C24.6001 0.895498 23.7046 0 22.6 0C21.4955 0 20.6001 0.895498 20.6001 1.99996V3.99993H2.60031C1.49575 3.99993 0.600342 4.89543 0.600342 5.99989V37.9993C0.600342 39.1039 1.49584 39.9993 2.60031 39.9993H11.3642L8.81142 45.1051C8.31745 46.0931 8.71786 47.2944 9.70579 47.7884C10.6936 48.2824 11.8951 47.8819 12.389 46.894L15.8362 39.9994H29.3639L32.8111 46.894C33.1615 47.5948 33.8677 48 34.6014 48C34.902 48 35.2072 47.932 35.4942 47.7884C36.4822 47.2944 36.8826 46.0931 36.3886 45.1051L33.8358 39.9993H42.5997C43.7043 39.9993 44.5997 39.1038 44.5997 37.9993V5.99989C44.5999 4.89543 43.7044 3.99993 42.5999 3.99993ZM40.5999 35.9994H30.6H14.6002H4.60027V7.99995H40.5999V35.9994Z" fill="#4F4F4F"/>
</svg>
