<svg width="65" height="46" viewBox="0 0 65 46" fill="none" xmlns="http://www.w3.org/2000/svg">
<path d="M55.2817 26.9381C59.3433 26.9381 62.6365 23.647 62.6365 19.5854C62.6365 15.5238 59.3432 12.2305 55.2817 12.2305C51.2211 12.2305 47.9277 15.5238 47.9277 19.5854C47.9279 23.647 51.2211 26.9381 55.2817 26.9381Z" fill="#4F4F4F"/>
<path d="M64.6986 34.0254C64.3709 32.0562 62.7432 29.3001 61.5111 28.0689C61.3488 27.9057 60.6234 27.868 60.4275 27.9895C58.9296 28.9107 57.17 29.4529 55.2815 29.4529C53.3951 29.4529 51.6355 28.9107 50.1374 27.9895C49.9406 27.868 49.2162 27.9057 49.054 28.0689C48.7095 28.4134 48.3337 28.8719 47.9673 29.4036C48.9586 31.2701 49.7448 33.2528 50.0286 34.9601C50.3122 36.6717 50.2201 38.2921 49.7615 39.7693C51.3903 40.3586 53.3437 40.6172 55.2814 40.6172C60.3356 40.6172 65.5078 38.8648 64.6986 34.0254Z" fill="#4F4F4F"/>
<path d="M32.6107 23.8358C39.1931 23.8358 44.5298 18.4991 44.5298 11.9169C44.5298 5.33666 39.1931 0 32.6107 0C26.0295 0 20.6948 5.33666 20.6948 11.9169C20.6948 18.4991 26.0294 23.8358 32.6107 23.8358Z" fill="#4F4F4F"/>
<path d="M42.7033 25.6615C42.4447 25.404 41.2702 25.3381 40.9509 25.5358C38.5211 27.0307 35.6698 27.9059 32.6109 27.9059C29.5543 27.9059 26.7016 27.0307 24.2731 25.5358C23.9539 25.338 22.7794 25.404 22.5208 25.6615C20.5192 27.6609 17.8813 32.1308 17.3506 35.3173C16.042 43.1664 24.426 46.0001 32.6109 46.0001C40.7981 46.0001 49.182 43.1664 47.8734 35.3173C47.3427 32.1308 44.7047 27.6609 42.7033 25.6615Z" fill="#4F4F4F"/>
<path d="M10.3178 26.9381C14.3784 26.9381 17.6717 23.647 17.6717 19.5854C17.6717 15.5238 14.3784 12.2305 10.3178 12.2305C6.25614 12.2305 2.96289 15.5238 2.96289 19.5854C2.96289 23.647 6.25614 26.9381 10.3178 26.9381Z" fill="#4F4F4F"/>
<path d="M15.196 34.9601C15.4976 33.1669 16.3486 31.0556 17.4154 29.1032C17.118 28.6971 16.8208 28.3433 16.5465 28.0689C16.3842 27.9057 15.6598 27.868 15.463 27.9895C13.965 28.9107 12.2053 29.4529 10.318 29.4529C8.43052 29.4529 6.66971 28.9107 5.17288 27.9895C4.97699 27.868 4.25063 27.9057 4.08834 28.0689C2.85312 29.3 1.22961 32.0562 0.900784 34.0254C0.0927148 38.8648 5.26396 40.6171 10.318 40.6171C12.1217 40.6171 13.9431 40.3951 15.4976 39.8875C15.0078 38.3802 14.9041 36.7219 15.196 34.9601Z" fill="#4F4F4F"/>
</svg>
