<svg width="42" height="55" viewBox="0 0 42 55" fill="none" xmlns="http://www.w3.org/2000/svg">
<path d="M30.7487 36.0359C31.4004 35.8999 32.0753 35.8279 32.7668 35.8279C33.6332 35.8279 34.4734 35.941 35.2746 36.1517V4.49321C35.2746 3.90007 34.7935 3.41895 34.2002 3.41895H25.1787V6.09255H30.7487V36.0359Z" fill="#4F4F4F"/>
<path d="M4.62567 48.6088V6.09256H10.196V3.41895H1.17421C0.581068 3.41895 0.100098 3.90007 0.100098 4.49321V50.9763C0.100098 51.5696 0.581068 52.0506 1.17421 52.0506H25.2206C24.3786 51.0521 23.7299 49.8859 23.3349 48.6088H4.62567Z" fill="#4F4F4F"/>
<path d="M12.1942 6.93488H23.1803C23.4351 6.93488 23.6419 6.7282 23.6419 6.47327V1.90145C23.6419 1.64652 23.4351 1.43984 23.1803 1.43984H21.4423C21.1676 0.604055 20.382 0 19.4542 0H15.9199C14.9923 0 14.2067 0.604055 13.9318 1.43984H12.194C11.9389 1.43984 11.7324 1.64652 11.7324 1.90145V6.47327C11.7327 6.7282 11.9391 6.93488 12.1942 6.93488Z" fill="#4F4F4F"/>
<path d="M7.95508 11.7025V14.1612C7.95508 14.3734 8.12703 14.5453 8.33924 14.5453H10.7979C11.0101 14.5453 11.182 14.3734 11.182 14.1612V11.7025C11.182 11.4903 11.0101 11.3184 10.7979 11.3184H8.33924C8.12718 11.3184 7.95508 11.4903 7.95508 11.7025Z" fill="#4F4F4F"/>
<path d="M27.4195 11.7025C27.4195 11.4903 27.2475 11.3184 27.0353 11.3184H14.6908C14.4786 11.3184 14.3066 11.4903 14.3066 11.7025V14.1612C14.3066 14.3734 14.4786 14.5453 14.6908 14.5453H27.0353C27.2475 14.5453 27.4195 14.3734 27.4195 14.1612V11.7025Z" fill="#4F4F4F"/>
<path d="M11.182 19.3856C11.182 19.1734 11.0101 19.0015 10.7979 19.0015H8.33924C8.12703 19.0015 7.95508 19.1734 7.95508 19.3856V21.8443C7.95508 22.0565 8.12703 22.2284 8.33924 22.2284H10.7979C11.0101 22.2284 11.182 22.0565 11.182 21.8443V19.3856Z" fill="#4F4F4F"/>
<path d="M27.4195 19.3856C27.4195 19.1734 27.2475 19.0015 27.0353 19.0015H14.6908C14.4786 19.0015 14.3066 19.1734 14.3066 19.3856V21.8443C14.3066 22.0565 14.4786 22.2284 14.6908 22.2284H27.0353C27.2475 22.2284 27.4195 22.0565 27.4195 21.8443V19.3856Z" fill="#4F4F4F"/>
<path d="M11.182 27.0687C11.182 26.8565 11.0101 26.6846 10.7979 26.6846H8.33924C8.12703 26.6846 7.95508 26.8565 7.95508 27.0687V29.5274C7.95508 29.7396 8.12703 29.9115 8.33924 29.9115H10.7979C11.0101 29.9115 11.182 29.7396 11.182 29.5274V27.0687Z" fill="#4F4F4F"/>
<path d="M27.4195 27.0687C27.4195 26.8565 27.2475 26.6846 27.0353 26.6846H14.6908C14.4786 26.6846 14.3066 26.8565 14.3066 27.0687V29.5274C14.3066 29.7396 14.4786 29.9115 14.6908 29.9115H27.0353C27.2475 29.9115 27.4195 29.7396 27.4195 29.5274V27.0687Z" fill="#4F4F4F"/>
<path d="M10.7979 34.3682H8.33924C8.12703 34.3682 7.95508 34.5401 7.95508 34.7523V37.211C7.95508 37.4232 8.12703 37.5951 8.33924 37.5951H10.7979C11.0101 37.5951 11.182 37.4232 11.182 37.211V34.7523C11.182 34.5401 11.0101 34.3682 10.7979 34.3682Z" fill="#4F4F4F"/>
<path d="M27.0353 34.3682H14.6908C14.4786 34.3682 14.3066 34.5401 14.3066 34.7523V37.211C14.3066 37.4232 14.4786 37.5951 14.6908 37.5951H27.0353C27.2879 37.5951 27.4195 37.3548 27.4195 37.211V34.7523C27.4195 34.5401 27.2473 34.3682 27.0353 34.3682Z" fill="#4F4F4F"/>
<path d="M32.7664 37.3643C28.164 37.3643 24.4329 41.0954 24.4329 45.6978C24.4329 50.3004 28.164 54.0313 32.7664 54.0313C37.3691 54.0313 41.0999 50.3004 41.0999 45.6978C41.1001 41.0955 37.3691 37.3643 32.7664 37.3643ZM36.6547 44.5929L32.815 48.4327C32.59 48.6577 32.295 48.7703 32.0001 48.7703C31.7052 48.7703 31.4102 48.6578 31.1852 48.4329L28.8784 46.1262C28.4283 45.6761 28.4283 44.9464 28.8782 44.4963C29.3285 44.0462 30.0579 44.0462 30.5081 44.4963L31.9999 45.9881L35.0248 42.9632C35.4749 42.5131 36.2046 42.5131 36.6546 42.9632C37.1048 43.4131 37.1048 44.1429 36.6547 44.5929Z" fill="#4F4F4F"/>
</svg>
