<svg width="51" height="55" viewBox="0 0 51 55" fill="none" xmlns="http://www.w3.org/2000/svg">
<path d="M25.6814 42.8917C25.355 42.1747 24.6793 41.6516 23.8615 41.5586C23.1689 41.4795 22.4909 41.3312 21.8461 41.1173C21.557 41.02 21.2857 40.9139 21.0346 40.8001L21.4519 39.6626C21.7466 39.7941 22.0501 39.9144 22.361 40.0232L22.3739 40.0278L22.387 40.0321C23.3845 40.3617 24.3661 40.5289 25.304 40.5289C26.2457 40.5289 26.9284 40.4026 27.4528 40.132L27.4841 40.1158L27.5148 40.098C28.3092 39.6422 28.7651 38.8586 28.7651 37.9478C28.7651 36.9372 28.2199 36.0983 27.2689 35.645C26.7906 35.4123 26.1112 35.1901 25.1325 34.9469C24.1288 34.6931 23.2856 34.4237 22.6316 34.1478C22.1537 33.9316 21.739 33.5865 21.3652 33.093C21.0435 32.6526 20.8806 31.9904 20.8806 31.1238C20.8806 30.0782 21.175 29.2152 21.7808 28.4854C22.3201 27.8459 23.0859 27.4115 24.1136 27.1679C24.8761 26.9872 25.4707 26.443 25.7381 25.7402C26.0403 26.4526 26.6835 26.9823 27.4838 27.1099C28.1523 27.2163 28.7661 27.3861 29.3179 27.6158L28.9339 28.7307C27.8919 28.3124 26.8664 28.1011 25.8745 28.1011C22.5805 28.1011 22.4137 30.3735 22.4137 30.8291C22.4137 31.8167 22.9471 32.6447 23.877 33.1013L23.903 33.1141L23.9294 33.126C24.3991 33.3356 25.0656 33.5377 26.0275 33.7618C27.022 33.9866 27.8514 34.2441 28.503 34.5296L28.5165 34.5355L28.5301 34.5411C29.014 34.7425 29.429 35.0787 29.7988 35.5692L29.8048 35.5768L29.8107 35.5847C30.1341 36.0027 30.2982 36.6491 30.2982 37.5061C30.2982 38.4954 30.0118 39.3326 29.4224 40.0661C28.9111 40.7022 28.1975 41.1426 27.2399 41.4123C26.5005 41.6206 25.927 42.1859 25.6814 42.8917Z" fill="#4F4F4F"/>
<path d="M26.5157 45.8521H24.9285C24.5735 45.8521 24.2857 45.5571 24.2857 45.1928V43.8694C24.2857 43.5213 24.0217 43.2352 23.6841 43.1966C22.8805 43.1053 22.1032 42.9349 21.352 42.6857C20.6222 42.4397 19.9899 42.1483 19.4552 41.8105C19.2094 41.6552 19.12 41.3401 19.2216 41.0632L20.3103 38.0945C20.457 37.695 20.93 37.5421 21.2943 37.7487C21.7861 38.0273 22.3148 38.2656 22.8798 38.4634C23.722 38.7416 24.5303 38.8807 25.3043 38.8807C25.9698 38.8807 26.4455 38.8072 26.7306 38.6599C27.0157 38.496 27.1584 38.2587 27.1584 37.9478C27.1584 37.5879 26.9682 37.3179 26.5879 37.1379C26.2213 36.958 25.6098 36.7615 24.7544 36.5489C23.6541 36.2707 22.7374 35.976 22.004 35.6651C21.2706 35.3378 20.6321 34.814 20.0888 34.0941C19.5455 33.3577 19.2738 32.3675 19.2738 31.1238C19.2738 29.6836 19.7017 28.4482 20.5572 27.4171C21.3286 26.5027 22.3933 25.8843 23.752 25.5622C24.0579 25.4897 24.2857 25.2174 24.2857 24.8957V23.4371C24.2857 23.0729 24.5735 22.7778 24.9285 22.7778H26.5157C26.8707 22.7778 27.1584 23.0729 27.1584 23.4371V24.8123C27.1584 25.1492 27.4063 25.4297 27.7307 25.4815C28.921 25.671 29.9669 26.03 30.8681 26.5584C31.1239 26.7084 31.2255 27.0275 31.1272 27.3123L30.1083 30.2687C29.9735 30.6607 29.5236 30.8265 29.1616 30.6392C28.0138 30.0459 26.9185 29.7492 25.8749 29.7492C24.6387 29.7492 24.0207 30.1092 24.0207 30.8291C24.0207 31.1729 24.2043 31.4346 24.5708 31.6149C24.9377 31.7784 25.5419 31.9584 26.3841 32.1549C27.4706 32.4005 28.3876 32.6866 29.1346 33.0139C29.8815 33.3248 30.5266 33.8403 31.0702 34.5605C31.6269 35.2805 31.9055 36.2624 31.9055 37.5061C31.9055 38.8807 31.4911 40.0835 30.6624 41.1146C29.9409 42.0132 28.9418 42.6421 27.6658 43.0018C27.3724 43.0845 27.1584 43.3509 27.1584 43.6627V45.1928C27.1584 45.5571 26.8707 45.8521 26.5157 45.8521Z" fill="#4F4F4F"/>
<path fill-rule="evenodd" clip-rule="evenodd" d="M18.65 3H32.5663C36.1306 3 34.1732 8.48508 32.7301 11.8309L31.0879 15.6678L30.866 16.1853C32.4215 16.1079 33.9599 16.5497 35.2498 17.4445C40.0753 21.973 43.9916 27.4251 46.7784 33.4943C47.8642 35.7384 48.295 38.2568 48.0188 40.7462C47.6872 47.0913 42.7239 52.1475 36.5354 52.4449H14.6808C8.49067 52.1564 3.52004 47.1055 3.18145 40.7594C2.90518 38.27 3.33598 35.7516 4.42202 33.5075C7.21199 27.4324 11.1338 21.9753 15.9664 17.4445C17.2565 16.5497 18.7946 16.1079 20.3501 16.1853L20.093 15.5887L18.4861 11.8309C17.0495 8.48508 15.0826 3 18.65 3Z" stroke="#4F4F4F" stroke-width="5" stroke-linecap="round" stroke-linejoin="round"/>
<path d="M30.8663 18.6578C32.2316 18.6578 33.3385 17.5509 33.3385 16.1855C33.3385 14.8202 32.2316 13.7133 30.8663 13.7133V18.6578ZM20.3504 13.7133C18.985 13.7133 17.8782 14.8202 17.8782 16.1855C17.8782 17.5509 18.985 18.6578 20.3504 18.6578V13.7133ZM39.6981 15.0314C40.8812 14.3499 41.2879 12.8383 40.6063 11.6552C39.9246 10.472 38.4132 10.0654 37.2302 10.747L39.6981 15.0314ZM31.0881 15.668L31.5651 18.0938L31.5724 18.0924L31.0881 15.668ZM20.0932 15.5889L20.6052 13.1701L20.5827 13.1655L20.0932 15.5889ZM13.9486 10.7254C12.7535 10.065 11.2494 10.4984 10.5889 11.6934C9.9285 12.8884 10.3619 14.3926 11.5569 15.053L13.9486 10.7254ZM30.8663 13.7133H20.3504V18.6578H30.8663V13.7133ZM37.2302 10.747C35.1634 11.9375 32.9265 12.7799 30.6039 13.2436L31.5724 18.0924C34.4247 17.5228 37.1682 16.4889 39.6981 15.0314L37.2302 10.747ZM30.6111 13.2422C27.3036 13.8926 23.9038 13.8681 20.6052 13.1701L19.5815 18.0076C23.5316 18.8434 27.6039 18.8727 31.5651 18.0938L30.6111 13.2422ZM20.5827 13.1655C18.2663 12.6979 16.03 11.8758 13.9486 10.7254L11.5569 15.053C14.078 16.4463 16.7906 17.4442 19.604 18.0123L20.5827 13.1655Z" fill="#4F4F4F"/>
</svg>
