<svg width="56" height="48" viewBox="0 0 56 48" fill="none" xmlns="http://www.w3.org/2000/svg">
<path d="M27.4233 8.9616C27.0704 8.9578 26.7265 8.84969 26.435 8.65088C26.1434 8.45207 25.9172 8.17144 25.7847 7.84433C25.6523 7.51721 25.6196 7.15823 25.6908 6.81258C25.762 6.46693 25.9338 6.15005 26.1847 5.90185C26.4355 5.65365 26.7542 5.48522 27.1006 5.41775C27.447 5.35029 27.8056 5.38681 28.1313 5.52272C28.457 5.65863 28.7352 5.88786 28.9309 6.18154C29.1265 6.47522 29.231 6.82023 29.231 7.17313C29.231 7.40962 29.1841 7.64377 29.093 7.86202C29.002 8.08027 28.8685 8.27829 28.7004 8.44462C28.5323 8.61094 28.3328 8.74228 28.1136 8.83102C27.8944 8.91976 27.6598 8.96414 27.4233 8.9616Z" fill="#4F4F4F"/>
<path d="M30.9809 43.0771H5.8654C5.39107 43.0771 4.93617 42.8886 4.60076 42.5532C4.26536 42.2178 4.07693 41.7629 4.07693 41.2886V5.38463C4.07693 4.9103 4.26536 4.4554 4.60076 4.12C4.93617 3.78459 5.39107 3.59616 5.8654 3.59616H48.9425C49.4168 3.59616 49.8717 3.78459 50.2071 4.12C50.5425 4.4554 50.7309 4.9103 50.7309 5.38463V10.7693H9.46157C8.98469 10.7693 8.52734 10.9587 8.19013 11.2959C7.85292 11.6331 7.66348 12.0905 7.66348 12.5673C7.66348 13.0442 7.85292 13.5016 8.19013 13.8388C8.52734 14.176 8.98469 14.3654 9.46157 14.3654H50.7502V23.327C50.7502 23.8039 50.9396 24.2612 51.2768 24.5984C51.614 24.9356 52.0714 25.1251 52.5482 25.1251C53.0251 25.1251 53.4825 24.9356 53.8197 24.5984C54.1569 24.2612 54.3463 23.8039 54.3463 23.327V5.38463C54.3463 4.67751 54.207 3.97732 53.9364 3.32402C53.6658 2.67073 53.2692 2.07713 52.7692 1.57712C52.2692 1.07711 51.6756 0.680484 51.0223 0.409881C50.369 0.139278 49.6688 0 48.9617 0H5.8654C4.44064 0.00508846 3.07598 0.574642 2.07032 1.58391C1.06466 2.59317 0.499991 3.95987 0.5 5.38463V41.2694C0.5 42.6975 1.06731 44.0671 2.07712 45.0769C3.08694 46.0867 4.45654 46.654 5.88463 46.654H30.9809C31.4577 46.654 31.9151 46.4646 32.2523 46.1273C32.5895 45.7901 32.7789 45.3328 32.7789 44.8559C32.7789 44.379 32.5895 43.9217 32.2523 43.5845C31.9151 43.2473 31.4577 43.0578 30.9809 43.0578V43.0771Z" fill="#4F4F4F"/>
<path d="M18.4424 17.9232C18.4424 17.4489 18.2539 16.994 17.9185 16.6586C17.5831 16.3232 17.1282 16.1348 16.6539 16.1348H9.46156C8.98723 16.1348 8.53233 16.3232 8.19693 16.6586C7.86152 16.994 7.6731 17.4489 7.6731 17.9232V25.0963C7.6731 25.5707 7.86152 26.0256 8.19693 26.361C8.53233 26.6964 8.98723 26.8848 9.46156 26.8848H16.6539C17.1282 26.8848 17.5831 26.6964 17.9185 26.361C18.2539 26.0256 18.4424 25.5707 18.4424 25.0963V17.9232ZM14.8462 23.3271H11.2693V19.7309H14.8462V23.3271Z" fill="#4F4F4F"/>
<path d="M16.6539 28.7114H9.46156C8.98723 28.7114 8.53233 28.8999 8.19693 29.2353C7.86152 29.5707 7.6731 30.0256 7.6731 30.4999V37.673C7.6731 38.1473 7.86152 38.6022 8.19693 38.9376C8.53233 39.273 8.98723 39.4615 9.46156 39.4615H16.6539C17.1282 39.4615 17.5831 39.273 17.9185 38.9376C18.2539 38.6022 18.4424 38.1473 18.4424 37.673V30.4999C18.4424 30.0256 18.2539 29.5707 17.9185 29.2353C17.5831 28.8999 17.1282 28.7114 16.6539 28.7114ZM14.8654 35.8845H11.2693V32.2884H14.8462L14.8654 35.8845Z" fill="#4F4F4F"/>
<path d="M31.0194 16.1348H23.827C23.3527 16.1348 22.8978 16.3232 22.5624 16.6586C22.227 16.994 22.0386 17.4489 22.0386 17.9232V25.0963C22.0386 25.5707 22.227 26.0256 22.5624 26.361C22.8978 26.6964 23.3527 26.8848 23.827 26.8848H31.0001C31.4745 26.8848 31.9294 26.6964 32.2648 26.361C32.6002 26.0256 32.7886 25.5707 32.7886 25.0963V17.9232C32.7886 17.4522 32.6028 17.0002 32.2716 16.6653C31.9403 16.3305 31.4904 16.1398 31.0194 16.1348ZM29.2117 23.3271H25.6347V19.7309H29.2309L29.2117 23.3271Z" fill="#4F4F4F"/>
<path d="M38.1925 25.1154C38.6669 25.1154 39.1218 24.9269 39.4572 24.5915C39.7926 24.2561 39.981 23.8012 39.981 23.3269V19.7307H43.5772V23.3269C43.5772 23.8038 43.7666 24.2611 44.1038 24.5983C44.441 24.9355 44.8984 25.125 45.3752 25.125C45.8521 25.125 46.3095 24.9355 46.6467 24.5983C46.9839 24.2611 47.1733 23.8038 47.1733 23.3269V17.9423C47.1733 17.4679 46.9849 17.013 46.6495 16.6776C46.3141 16.3422 45.8592 16.1538 45.3849 16.1538H38.1925C37.7182 16.1538 37.2633 16.3422 36.9279 16.6776C36.5925 17.013 36.4041 17.4679 36.4041 17.9423V23.3269C36.4041 23.8012 36.5925 24.2561 36.9279 24.5915C37.2633 24.9269 37.7182 25.1154 38.1925 25.1154Z" fill="#4F4F4F"/>
<path d="M31.0194 28.7114H23.827C23.3527 28.7114 22.8978 28.8999 22.5624 29.2353C22.227 29.5707 22.0386 30.0256 22.0386 30.4999V37.673C22.0386 38.1473 22.227 38.6022 22.5624 38.9376C22.8978 39.273 23.3527 39.4615 23.827 39.4615H31.0001C31.4745 39.4615 31.9294 39.273 32.2648 38.9376C32.6002 38.6022 32.7886 38.1473 32.7886 37.673V30.4999C32.7886 30.0289 32.6028 29.5769 32.2716 29.242C31.9403 28.9072 31.4904 28.7165 31.0194 28.7114ZM29.2309 35.8845H25.6347V32.2884H29.2309V35.8845Z" fill="#4F4F4F"/>
<path d="M55.5 37.3273C55.5 43.105 50.8162 47.7889 45.0385 47.7889C39.2607 47.7889 34.5769 43.105 34.5769 37.3273C34.5769 31.5495 39.2607 26.8657 45.0385 26.8657C50.8162 26.8657 55.5 31.5495 55.5 37.3273Z" fill="#4F4F4F"/>
<path fill-rule="evenodd" clip-rule="evenodd" d="M45.0393 32.3579C45.4726 32.3579 45.8239 32.7092 45.8239 33.1425V37.0021L48.2094 39.3878C48.5158 39.6942 48.5158 40.1909 48.2094 40.4973C47.903 40.8037 47.4063 40.8037 47.0999 40.4973L44.4845 37.8819C44.3373 37.7348 44.2546 37.5352 44.2546 37.3272V33.1425C44.2546 32.7092 44.6059 32.3579 45.0393 32.3579Z" fill="white"/>
</svg>
