<svg width="44" height="47" viewBox="0 0 44 47" fill="none" xmlns="http://www.w3.org/2000/svg">
<path d="M2.35403 19.6399L4.0017 19.4987C3.92541 18.6239 3.16756 17.964 2.28273 18.0019C1.39789 18.0397 0.700195 18.7619 0.700195 19.6399H2.35403ZM40.3615 23.6255L38.8058 32.5439L42.0651 33.1029L43.6208 24.1842L40.3615 23.6255ZM24.9453 43.7209H14.6946V47H24.9453V43.7209ZM12.6849 41.8901L10.894 21.3572L7.59865 21.6397L9.38955 42.1726L12.6849 41.8901ZM38.8058 32.5439C37.6882 38.9503 31.8612 43.7209 24.9453 43.7209V47C33.3825 47 40.6585 41.1654 42.0651 33.1029L38.8058 32.5439ZM24.967 8.4166L23.5056 17.2582L26.7699 17.7884L28.2312 8.9468L24.967 8.4166ZM11.5884 19.6648L14.761 16.9546L12.6018 14.4706L9.42922 17.1809L11.5884 19.6648ZM20.5329 8.13659L21.5819 4.1277L18.3803 3.30435L17.3313 7.31323L20.5329 8.13659ZM23.1663 3.34116L23.486 3.44297L24.4977 0.321053L24.178 0.219249L23.1663 3.34116ZM18.9441 12.1675C19.6319 10.8908 20.1662 9.53856 20.5329 8.13659L17.3313 7.31323C17.0306 8.46233 16.5924 9.57254 16.0266 10.6225L18.9441 12.1675ZM23.486 3.44297C24.1617 3.65816 24.6415 4.17553 24.7991 4.77834L28.001 3.95501C27.5478 2.22361 26.2111 0.866713 24.4977 0.321053L23.486 3.44297ZM21.5819 4.1277C21.6593 3.83257 21.8743 3.56134 22.1995 3.40594L20.7636 0.451954C19.5905 1.01233 18.7093 2.04672 18.3803 3.30435L21.5819 4.1277ZM22.1995 3.40594C22.4966 3.264 22.8463 3.2393 23.1663 3.34116L24.178 0.219249C23.054 -0.138716 21.8278 -0.0564112 20.7636 0.451954L22.1995 3.40594ZM26.9491 21.2794H38.374V18.0003H26.9491V21.2794ZM6.14419 44.0622L4.0017 19.4987L0.706348 19.7811L2.84883 44.3446L6.14419 44.0622ZM4.00786 44.2952V19.6399H0.700195V44.2952H4.00786ZM2.84883 44.3446C2.81974 44.0112 3.08493 43.7209 3.42727 43.7209V47C5.02811 47 6.28181 45.6401 6.14419 44.0622L2.84883 44.3446ZM28.2312 8.9468C28.5057 7.28512 28.4274 5.58486 28.001 3.95501L24.7991 4.77834C25.1101 5.96621 25.1672 7.20546 24.967 8.4166L28.2312 8.9468ZM14.6946 43.7209C13.6496 43.7209 12.7754 42.9274 12.6849 41.8901L9.38955 42.1726C9.62761 44.9018 11.9301 47 14.6946 47V43.7209ZM14.761 16.9546C16.2601 15.6739 17.8762 14.1495 18.9441 12.1675L16.0266 10.6225C15.2628 12.04 14.0466 13.2364 12.6018 14.4706L14.761 16.9546ZM43.6208 24.1842C44.1838 20.9565 41.6801 18.0003 38.374 18.0003V21.2794C39.6234 21.2794 40.5756 22.398 40.3615 23.6255L43.6208 24.1842ZM3.42727 43.7209C3.74968 43.7209 4.00786 43.9798 4.00786 44.2952H0.700195C0.700195 45.7874 1.91938 47 3.42727 47V43.7209ZM23.5056 17.2582C23.1579 19.3631 24.7945 21.2794 26.9491 21.2794V18.0003C26.8391 18.0003 26.7511 17.9016 26.7699 17.7884L23.5056 17.2582ZM10.894 21.3572C10.838 20.7145 11.0967 20.085 11.5884 19.6648L9.42922 17.1809C8.13189 18.2891 7.45111 19.9483 7.59865 21.6397L10.894 21.3572Z" fill="#4F4F4F"/>
</svg>
