<svg width="48" height="47" viewBox="0 0 48 47" fill="none" xmlns="http://www.w3.org/2000/svg">
<path fill-rule="evenodd" clip-rule="evenodd" d="M47.7002 23.5C47.7002 36.4786 37.1788 47 24.2002 47C11.2215 47 0.700195 36.4786 0.700195 23.5C0.700195 10.5213 11.2215 0 24.2002 0C37.1788 0 47.7002 10.5213 47.7002 23.5ZM29.1578 15.0841L32.6414 18.5711C35.0055 20.9373 36.1873 22.1205 35.9117 23.3959C35.6358 24.6715 34.0709 25.2594 30.9409 26.4354L28.774 27.2494C27.9358 27.5643 27.5167 27.7218 27.1932 28.0019C27.0517 28.1246 26.9248 28.2634 26.8155 28.4157C26.5662 28.7633 26.4473 29.1955 26.2094 30.0596C25.6687 32.0249 25.3985 33.0074 24.7546 33.3747C24.4834 33.5296 24.1762 33.6109 23.8639 33.6104C23.123 33.6092 22.4029 32.8885 20.9631 31.4472L19.852 30.3352L16.048 34.1453C15.3603 34.834 14.2444 34.835 13.5555 34.1474C12.8666 33.4595 12.8657 32.3435 13.5535 31.6547L17.3592 27.8428C17.3597 27.8423 17.3587 27.8433 17.3592 27.8428L16.3104 26.79C14.8795 25.3577 14.164 24.6416 14.1594 23.9049C14.1574 23.5865 14.24 23.2732 14.399 22.9971C14.7665 22.3591 15.7421 22.09 17.693 21.5521C18.5586 21.3136 18.9913 21.1942 19.3392 20.9439C19.4953 20.8313 19.6372 20.7007 19.762 20.5543C20.0402 20.2279 20.1949 19.806 20.5039 18.9621L21.2888 16.8202C22.4483 13.6553 23.0282 12.0729 24.3071 11.7907C25.5858 11.5086 26.7765 12.7005 29.1578 15.0841Z" fill="#4F4F4F"/>
</svg>
