<svg width="53" height="52" viewBox="0 0 53 52" fill="none" xmlns="http://www.w3.org/2000/svg">
<path d="M15.5335 28.6667V39.3333M36.8669 23.3333V39.3333M26.2002 12.6667V39.3333M15.0002 50H37.4002C41.8807 50 44.1207 50 45.8322 49.128C47.3375 48.3611 48.5613 47.1373 49.3282 45.632C50.2002 43.9205 50.2002 41.6805 50.2002 37.2V14.8C50.2002 10.3196 50.2002 8.07936 49.3282 6.36808C48.5613 4.86277 47.3375 3.63893 45.8322 2.87195C44.1207 2 41.8807 2 37.4002 2H15.0002C10.5198 2 8.27956 2 6.56828 2.87195C5.06297 3.63893 3.83913 4.86277 3.07214 6.36808C2.2002 8.07936 2.2002 10.3196 2.2002 14.8V37.2C2.2002 41.6805 2.2002 43.9205 3.07214 45.632C3.83913 47.1373 5.06297 48.3611 6.56828 49.128C8.27956 50 10.5198 50 15.0002 50Z" stroke="#4F4F4F" stroke-width="4" stroke-linecap="round" stroke-linejoin="round"/>
</svg>
