<svg width="57" height="54" viewBox="0 0 57 54" fill="none" xmlns="http://www.w3.org/2000/svg">
<path d="M56.8 28C56.8 34.558 51.538 39.878 45.008 39.99L43.75 39.988C43.24 47.81 36.75 54 28.8 54C23.872 54 19.532 51.598 16.8 47.928V51C16.8 51.552 16.352 52 15.8 52C15.248 52 14.8 51.552 14.8 51V44H21.8C22.352 44 22.8 44.448 22.8 45C22.8 45.552 22.352 46 21.8 46H17.89C20.204 49.596 24.214 52 28.8 52C35.636 52 41.244 46.694 41.75 39.984L15.856 39.948C15.83 39.634 15.8 39.32 15.8 39C15.8 31.832 21.632 26 28.8 26C33.384 26 37.396 28.404 39.708 32H35.8C35.248 32 34.8 32.448 34.8 33C34.8 33.552 35.248 34 35.8 34H42.8V27C42.8 26.448 42.352 26 41.8 26C41.248 26 40.8 26.448 40.8 27V30.056C38.068 26.39 33.724 24 28.8 24C20.516 24 13.8 30.716 13.8 39C13.8 39.32 13.82 39.632 13.844 39.946H13.722C6.49605 39.394 0.800049 33.368 0.800049 26C0.800049 18.774 6.27605 12.83 13.304 12.082C15.054 5.144 21.318 0 28.8 0C37.636 0 44.8 7.164 44.8 16C51.428 16 56.8 21.372 56.8 28Z" fill="#4F4F4F"/>
</svg>
