<svg width="44" height="45" viewBox="0 0 44 45" fill="none" xmlns="http://www.w3.org/2000/svg">
<path d="M14.8137 33.8889H7.12834C4.28007 33.8889 2.85595 33.8889 2.55631 33.6663C2.21968 33.4162 2.13743 33.2686 2.10097 32.8493C2.06854 32.476 2.94137 31.0385 4.68709 28.1639C6.48951 25.1957 8.01998 20.8741 8.01998 14.7556C8.01998 11.3726 9.45074 8.12816 11.9975 5.73601C14.5442 3.34389 17.9984 2 21.6 2C25.2017 2 28.6558 3.34389 31.2025 5.73601C33.7495 8.12816 35.1801 11.3726 35.1801 14.7556C35.1801 20.8741 36.7106 25.1957 38.5131 28.1639C40.2586 31.0385 41.1316 32.476 41.0992 32.8493C41.0628 33.2686 40.9804 33.4162 40.6438 33.6663C40.3442 33.8889 38.9201 33.8889 36.0719 33.8889H28.3901M14.8137 33.8889L14.81 36.1667C14.81 39.9407 17.8501 43 21.6 43C25.3502 43 28.3901 39.9407 28.3901 36.1667V33.8889M14.8137 33.8889H28.3901" stroke="#4F4F4F" stroke-width="4" stroke-linecap="round" stroke-linejoin="round"/>
</svg>
