<svg width="23" height="23" viewBox="0 0 23 23" fill="none" xmlns="http://www.w3.org/2000/svg">
<path fill-rule="evenodd" clip-rule="evenodd" d="M11.6473 22.0427C5.59542 22.0427 0.689941 17.1372 0.689941 11.0853C0.689941 5.03341 5.59542 0.12793 11.6473 0.12793C17.6992 0.12793 22.6047 5.03341 22.6047 11.0853C22.6047 17.1372 17.6992 22.0427 11.6473 22.0427ZM17.1219 11.2353L11.9884 2.86727L6.85346 11.236L11.9884 14.217L17.1219 11.2353ZM17.126 12.192L11.9884 15.1717L6.85346 12.1927L11.9884 19.2999L17.126 12.192Z" fill="white"/>
<path d="M11.9885 2.86621V8.9407L17.1227 11.2349L11.9885 2.86621ZM11.9885 15.1713V19.2988L17.1262 12.1909L11.9885 15.1713Z" fill="black" fill-opacity="0.298"/>
<path d="M11.9885 2.86816V8.94265L6.85431 11.2369L11.9885 2.86816ZM11.9885 15.1733V19.3008L6.85089 12.1929L11.9885 15.1733Z" fill="black" fill-opacity="0.298"/>
<path d="M11.9885 14.2163L17.1227 11.2352L11.9885 8.94238V14.2163Z" fill="black" fill-opacity="0.801"/>
<path d="M11.9885 14.2163L6.85431 11.2352L11.9885 8.94238V14.2163Z" fill="black" fill-opacity="0.801"/>
<path d="M6.85278 11.2352L11.9877 14.2163V8.94238L6.85278 11.2352Z" fill="black" fill-opacity="0.298"/>
</svg>
