<svg width="39" height="26" viewBox="0 0 39 26" fill="none" xmlns="http://www.w3.org/2000/svg">
<path d="M1.5197 0.373206C1.32115 0.370228 1.12402 0.409128 0.93977 0.487645C0.755519 0.566162 0.587821 0.68273 0.446422 0.830575C0.305022 0.978419 0.192741 1.15459 0.116103 1.34886C0.0394655 1.54312 0 1.7516 0 1.96218C0 2.17275 0.0394655 2.38123 0.116103 2.5755C0.192741 2.76976 0.305022 2.94593 0.446422 3.09378C0.587821 3.24162 0.755519 3.35819 0.93977 3.43671C1.12402 3.51522 1.32115 3.55412 1.5197 3.55114H37.4803C37.6789 3.55412 37.876 3.51522 38.0602 3.43671C38.2445 3.35819 38.4122 3.24162 38.5536 3.09378C38.695 2.94593 38.8073 2.76976 38.8839 2.5755C38.9605 2.38123 39 2.17275 39 1.96218C39 1.7516 38.9605 1.54312 38.8839 1.34886C38.8073 1.15459 38.695 0.978419 38.5536 0.830575C38.4122 0.68273 38.2445 0.566162 38.0602 0.487645C37.876 0.409128 37.6789 0.370228 37.4803 0.373206H1.5197ZM1.5197 11.496C1.32115 11.493 1.12402 11.5319 0.93977 11.6104C0.755519 11.6889 0.587821 11.8055 0.446422 11.9534C0.305022 12.1012 0.192741 12.2774 0.116103 12.4716C0.0394655 12.6659 0 12.8744 0 13.085C0 13.2955 0.0394655 13.504 0.116103 13.6983C0.192741 13.8925 0.305022 14.0687 0.446422 14.2166C0.587821 14.3644 0.755519 14.481 0.93977 14.5595C1.12402 14.638 1.32115 14.6769 1.5197 14.6739H37.4803C37.6789 14.6769 37.876 14.638 38.0602 14.5595C38.2445 14.481 38.4122 14.3644 38.5536 14.2166C38.695 14.0687 38.8073 13.8925 38.8839 13.6983C38.9605 13.504 39 13.2955 39 13.085C39 12.8744 38.9605 12.6659 38.8839 12.4716C38.8073 12.2774 38.695 12.1012 38.5536 11.9534C38.4122 11.8055 38.2445 11.6889 38.0602 11.6104C37.876 11.5319 37.6789 11.493 37.4803 11.496H1.5197ZM1.5197 22.6188C1.32115 22.6158 1.12402 22.6547 0.93977 22.7332C0.755519 22.8117 0.587821 22.9283 0.446422 23.0761C0.305022 23.224 0.192741 23.4002 0.116103 23.5944C0.0394655 23.7887 0 23.9972 0 24.2077C0 24.4183 0.0394655 24.6268 0.116103 24.8211C0.192741 25.0153 0.305022 25.1915 0.446422 25.3393C0.587821 25.4872 0.755519 25.6038 0.93977 25.6823C1.12402 25.7608 1.32115 25.7997 1.5197 25.7967H37.4803C37.6789 25.7997 37.876 25.7608 38.0602 25.6823C38.2445 25.6038 38.4122 25.4872 38.5536 25.3393C38.695 25.1915 38.8073 25.0153 38.8839 24.8211C38.9605 24.6268 39 24.4183 39 24.2077C39 23.9972 38.9605 23.7887 38.8839 23.5944C38.8073 23.4002 38.695 23.224 38.5536 23.0761C38.4122 22.9283 38.2445 22.8117 38.0602 22.7332C37.876 22.6547 37.6789 22.6158 37.4803 22.6188H1.5197Z" fill="#5A5A5A"/>
</svg>
