<svg width="39" height="27" viewBox="0 0 39 27" fill="none" xmlns="http://www.w3.org/2000/svg">
<path d="M1.5197 0.0395023C1.32115 0.0364074 1.12402 0.0768372 0.93977 0.158442C0.755519 0.240046 0.587821 0.361198 0.446422 0.514857C0.305022 0.668515 0.192741 0.851616 0.116103 1.05352C0.0394655 1.25542 0 1.4721 0 1.69096C0 1.90982 0.0394655 2.12649 0.116103 2.3284C0.192741 2.5303 0.305022 2.7134 0.446422 2.86706C0.587821 3.02072 0.755519 3.14187 0.93977 3.22347C1.12402 3.30508 1.32115 3.34551 1.5197 3.34241H37.4803C37.6789 3.34551 37.876 3.30508 38.0602 3.22347C38.2445 3.14187 38.4122 3.02072 38.5536 2.86706C38.695 2.7134 38.8073 2.5303 38.8839 2.3284C38.9605 2.12649 39 1.90982 39 1.69096C39 1.4721 38.9605 1.25542 38.8839 1.05352C38.8073 0.851616 38.695 0.668515 38.5536 0.514857C38.4122 0.361198 38.2445 0.240046 38.0602 0.158442C37.876 0.0768372 37.6789 0.0364074 37.4803 0.0395023H1.5197ZM1.5197 11.5997C1.32115 11.5966 1.12402 11.637 0.93977 11.7186C0.755519 11.8002 0.587821 11.9214 0.446422 12.075C0.305022 12.2287 0.192741 12.4118 0.116103 12.6137C0.0394655 12.8156 0 13.0323 0 13.2511C0 13.47 0.0394655 13.6867 0.116103 13.8886C0.192741 14.0905 0.305022 14.2736 0.446422 14.4272C0.587821 14.5809 0.755519 14.702 0.93977 14.7837C1.12402 14.8653 1.32115 14.9057 1.5197 14.9026H37.4803C37.6789 14.9057 37.876 14.8653 38.0602 14.7837C38.2445 14.702 38.4122 14.5809 38.5536 14.4272C38.695 14.2736 38.8073 14.0905 38.8839 13.8886C38.9605 13.6867 39 13.47 39 13.2511C39 13.0323 38.9605 12.8156 38.8839 12.6137C38.8073 12.4118 38.695 12.2287 38.5536 12.075C38.4122 11.9214 38.2445 11.8002 38.0602 11.7186C37.876 11.637 37.6789 11.5966 37.4803 11.5997H1.5197ZM1.5197 23.1599C1.32115 23.1568 1.12402 23.1972 0.93977 23.2788C0.755519 23.3604 0.587821 23.4816 0.446422 23.6352C0.305022 23.7889 0.192741 23.972 0.116103 24.1739C0.0394655 24.3758 0 24.5925 0 24.8113C0 25.0302 0.0394655 25.2469 0.116103 25.4488C0.192741 25.6507 0.305022 25.8338 0.446422 25.9874C0.587821 26.1411 0.755519 26.2622 0.93977 26.3438C1.12402 26.4254 1.32115 26.4659 1.5197 26.4628H37.4803C37.6789 26.4659 37.876 26.4254 38.0602 26.3438C38.2445 26.2622 38.4122 26.1411 38.5536 25.9874C38.695 25.8338 38.8073 25.6507 38.8839 25.4488C38.9605 25.2469 39 25.0302 39 24.8113C39 24.5925 38.9605 24.3758 38.8839 24.1739C38.8073 23.972 38.695 23.7889 38.5536 23.6352C38.4122 23.4816 38.2445 23.3604 38.0602 23.2788C37.876 23.1972 37.6789 23.1568 37.4803 23.1599H1.5197Z" fill="#5A5A5A"/>
</svg>
